<svg xmlns="http://www.w3.org/2000/svg" viewBox="0 0 210 297" height="70mm" width="70mm"><g stroke="black" class="svg" fill="none"><path d="M38.914 17.945h42.429v42.429h-42.429z"/><path d="M43.033 22.064h33.068v33.068h-33.068z"/><text y="48.852" x="49.197" style="line-height:1.25" font-size="29.936" font-family="sans-serif"><tspan y="48.852" x="49.197" font-size="29.936">0</tspan></text><g><g><path d="M38.915 81.589h42.43v42.43h-42.43z"/><text style="line-height:1.25" x="2.65" y="19.795" font-size="7.056" font-family="sans-serif" transform="matrix(4.243 0 0 4.243 37.954 28.504)"><tspan x="2.65" y="19.795" font-size="7.056">1</tspan></text></g><g><path d="M38.915 145.232h42.43v42.43h-42.43z"/><text y="19.795" x="2.65" style="line-height:1.25" font-size="7.056" font-family="sans-serif" transform="matrix(4.243 0 0 4.243 37.954 92.157)"><tspan y="19.795" x="2.65" font-size="7.056">2</tspan></text><path d="M38.917 208.878h42.43v42.43h-42.43z"/><text style="line-height:1.25" x="2.918" y="34.894" font-size="7.056" font-family="sans-serif" transform="matrix(4.243 0 0 4.243 37.954 92.157)"><tspan x="2.918" y="34.894" font-size="7.056">3</tspan></text></g></g><g fill-rule="evenodd"><path d="M58.204 60.52v21.404h-.354"/><path d="M64.654 71.505v-.071h-13.183"/></g><g fill-rule="evenodd"><path d="M58.488 251.455v21.404h-.354"/><path d="M64.938 262.44v-.071h-13.183"/></g><g fill-rule="evenodd"><path d="M58.7 124.094v21.404h-.354"/><path d="M65.15 135.079v-.071h-13.183"/></g><g fill-rule="evenodd"><path d="M58.559 187.313v21.404h-.354"/><path d="M65.008 198.299v-.071h-13.183"/></g><g><path d="M-10.206 5.449h70.163v12.235" fill-rule="evenodd"/><path d="M-10.429 6.4h.695v274.181" fill-rule="evenodd"/><path d="M-10.457 281.237h68.944v-8.379" fill-rule="evenodd"/><path d="M60.022 17.426l-7.076-5.426"/><path d="M60.022 17.426l7.076-5.426"/></g><path d="M92.897 81.589h127.286v42.429h-127.286z"/><path d="M92.897 209.094h127.286v42.429h-127.286z"/><path d="M81.595 228.701l10.798.11" fill-rule="evenodd"/><path d="M81.742 102.243l10.798.11" fill-rule="evenodd"/></g></svg>