<?xml version="1.0" encoding="UTF-8" standalone="no"?><svg xmlns="http://www.w3.org/2000/svg" width="482" height="322" viewBox="-0.5 -0.5 482 322">
	<g stroke="black" fill="none" class="svg">
		<path d="M0 50h100M100 80v-60M120 80v-60M120 50h230M100 180v-60M120 180v-60M230 180v-60M250 180v-60M0 150h100M230 180l20-60"/>
		<ellipse cx="390" cy="50" rx="40" ry="40"/>
		<path d="M430 50h50M120 150h110M250 150h60M310 50v100M0 320v-320M480 320v-310M100 280v-60M120 280v-60M100 280l20-60M0 250h100M120 250h230"/>
		<ellipse cx="390" cy="250" rx="40" ry="40"/><path d="M430 249.71l50 .29"/>
	</g>
</svg>